<svg width="25" height="25" fill="none" xmlns="http://www.w3.org/2000/svg"><g clip-path="url(#a)"><path d="M19.729 17.989 25 23.259 23.259 25l-5.27-5.271a11.026 11.026 0 0 1-6.913 2.423C4.962 22.152 0 17.19 0 11.076 0 4.962 4.962 0 11.076 0c6.114 0 11.076 4.962 11.076 11.076a11.026 11.026 0 0 1-2.423 6.913Zm-2.469-.913a8.587 8.587 0 0 0 2.43-6 8.612 8.612 0 0 0-8.614-8.615 8.612 8.612 0 0 0-8.615 8.615 8.612 8.612 0 0 0 8.615 8.615 8.587 8.587 0 0 0 6-2.43l.184-.185Z" fill="#fff"/></g><defs><clipPath id="a"><path fill="#fff" d="M0 0h25v25H0z"/></clipPath></defs></svg>